<?xml version="1.0" encoding="utf-8"?><svg viewBox="0 0 197 57" xmlns="http://www.w3.org/2000/svg" xmlns:xlink="http://www.w3.org/1999/xlink"><style>:root>svg{display:none}:root>svg:target{display:block}</style><svg viewBox="0 0 180 35" id="AmazonPay" xmlns="http://www.w3.org/2000/svg"><path fill-rule="evenodd" clip-rule="evenodd" d="M136.132 15.732c-.948.935-2.009 1.19-3.603 1.19-1.418 0-3.286-.74-4.681-1.77V4.771c1.452-1.117 3.305-1.72 4.848-1.72 4.033 0 5.131 3.171 5.131 6.801.022 2.448-.427 4.63-1.695 5.88zM133.695.012c-2.14 0-4.386.992-6.131 2.541l-.196-1.328a.707.707 0 00-.71-.618h-1.863a.619.619 0 00-.618.618v25.361c0 .34.278.62.618.62h2.435a.621.621 0 00.618-.62V17.83a8.537 8.537 0 005.699 2.17c5.1 0 8.115-4.417 8.115-9.913 0-5.136-1.971-10.075-7.967-10.075zm22.303 15.27c-.614.588-1.847 1.248-3.161 1.621-1.368.39-2.823.466-3.762-.17-.807-.497-1.153-1.499-1.153-2.499 0-.773.238-1.572.767-2.129.705-.76 2.055-1.05 3.29-1.05.781 0 2.799.137 4.019.47v3.756zM152.476 0c-2.459.081-4.772.525-6.405 1.236-.314.1-.605.43-.605.771v1.418c0 .341.214.62.58.606 2.286-.71 3.929-1.035 6.076-1.035 2.811 0 3.876 1.096 3.876 3.627v2.49c-1.452-.475-3.446-.639-4.84-.639-2.308 0-4.218.698-5.538 2.12-.987 1.042-1.433 2.476-1.433 3.922 0 1.87.801 3.681 2.312 4.61 2.088 1.281 4.552 1.143 6.689.313a10.634 10.634 0 002.972-1.76l.183 1.237a.707.707 0 00.711.618h1.816c.341 0 .62-.279.62-.618V5.652c0-4.93-3.809-5.652-7.014-5.652zm26.994.574h-2.43c-.488 0-.696.314-.801.617l-5.102 14.834-5.344-14.834c-.11-.305-.309-.617-.802-.617h-2.576c-.619 0-.583.575-.458.885l7.372 18.261a40.86 40.86 0 01-1.208 3.102c-.412.942-1.108 1.631-2.079 1.833-.743.152-1.79.048-2.531-.057-.397-.023-.584.238-.584.618v1.336c0 .237.102.594.369.727 1.055.441 2.85.575 4.273.204 2.839-.693 4.1-4.686 5.047-7.193l7.312-18.83c.122-.312.156-.886-.458-.886zM9.778 15.104c-.563.996-1.458 1.61-2.453 1.61-1.358 0-2.154-1.036-2.154-2.57 0-3.018 2.708-3.567 5.27-3.567v.767c0 1.381.034 2.531-.663 3.76zm6.973 1.592c-.647-.895-1.337-1.623-1.337-3.284V7.893c0-2.34.165-4.489-1.558-6.099C12.529.52 10.348.051 8.64.03h-.262C5.043.065 1.373 1.345.595 5.454c-.084.443.239.675.529.741l3.434.372c.322-.016.554-.333.616-.652.294-1.435 1.497-2.127 2.848-2.127.729 0 1.558.268 1.989.921.497.73.43 1.725.43 2.57v.46c-2.054.23-4.74.383-6.662 1.227-2.221.96-3.78 2.915-3.78 5.791 0 3.682 2.32 5.523 5.305 5.523 2.519 0 3.896-.594 5.842-2.575.643.931.854 1.382 2.03 2.361a.73.73 0 00.838-.083l.008.008c.708-.629 1.994-1.746 2.718-2.353.288-.236.237-.619.01-.942zm39.48-1.593c-.564.997-1.46 1.61-2.453 1.61-1.36 0-2.155-1.035-2.155-2.57 0-3.017 2.707-3.566 5.27-3.566v.767c0 1.381.033 2.531-.662 3.76zm.663-7.365c-2.055.231-4.741.384-6.663 1.228-2.221.96-3.78 2.915-3.78 5.791 0 3.682 2.322 5.523 5.305 5.523 2.519 0 3.897-.594 5.84-2.575.645.931.856 1.382 2.033 2.361a.729.729 0 00.836-.083l.01.008c.707-.629 1.993-1.746 2.717-2.353.288-.236.238-.619.01-.942-.646-.895-1.337-1.623-1.337-3.284V7.893c0-2.34.167-4.489-1.557-6.099C58.98.52 56.8.051 55.093.03h-.263c-3.335.035-7.004 1.315-7.783 5.424-.083.443.238.675.529.741l3.434.372c.32-.016.554-.333.615-.652.296-1.435 1.497-2.127 2.849-2.127.729 0 1.557.268 1.989.921.497.73.43 1.725.43 2.57v.46zM109.428.205c-2.447 0-3.836 1.186-4.828 3.674h-.068V1.097a.672.672 0 00-.629-.509l-3.287.001c-.357 0-.651.26-.68.593l.006 18.194c0 .348.281.63.635.653h3.531a.679.679 0 00.69-.654V9.582c0-1.226.065-2.335.563-3.446.396-.88 1.19-1.453 2.05-1.453 2.449 0 2.216 2.908 2.216 4.9v9.874a.67.67 0 00.631.572h3.552c.35 0 .639-.25.679-.572V8.012c0-1.76 0-4.21-.926-5.664-.993-1.57-2.547-2.143-4.135-2.143zM89.184 16.661c-2.78 0-2.746-4.745-2.746-6.965 0-2.22.165-5.778 2.777-5.778 1.125 0 1.92.497 2.316 1.76.464 1.454.53 3.291.53 4.822 0 2.334-.131 6.161-2.877 6.161zm0-16.456c-5.128 0-7.972 4.401-7.972 10.065 0 5.625 2.81 10.142 7.972 10.142 4.962 0 8.103-4.402 8.103-9.95 0-5.74-2.844-10.257-8.103-10.257zM20.149 20.03h3.543c.377 0 .684-.292.684-.654v-9.64c0-2.106-.1-5.014 2.448-5.014 2.514 0 2.183 2.985 2.183 5.013l.004 9.642c0 .348.28.63.636.653h3.54c.377 0 .683-.292.683-.654v-9.64c0-1.035-.033-2.565.33-3.484.365-.918 1.258-1.493 2.118-1.493 1.025 0 1.819.345 2.083 1.571.166.727.1 2.64.1 3.405v9.642c0 .348.28.63.636.653h3.539c.379 0 .684-.292.684-.654l.003-11.477c0-1.953.23-4.172-.893-5.703-.992-1.378-2.613-1.99-4.102-1.99-2.083 0-4.035 1.071-4.895 3.368C32.48 1.276 31.09.205 28.875.205c-2.182 0-3.804 1.071-4.663 3.368h-.067V1.2A.666.666 0 0023.5.59h-3.3c-.378 0-.684.29-.684.654l-.003 18.186a.67.67 0 00.635.6zm58.74-4.928c-2.034-1.143-4.403-1.479-6.643-1.427L78.28 5.06c.558-.774.873-1.262.876-1.636V1.195c0-.384-.298-.655-.671-.655L66.838.541a.643.643 0 00-.66.658v2.598c.003.39.302.655.674.655l6.086.001-6.99 10.028c-.425.643-.434 1.364-.434 1.786v2.636c0 .382.424.818.829.602 3.965-2.105 8.722-1.9 12.307-.023.439.23.858-.212.858-.594v-2.772c-.037-.375-.16-.757-.618-1.015zm-13.027 7.59c-.584.41-.484.978.166.9 2.144-.256 6.917-.83 7.768.26.852 1.09-.946 5.58-1.75 7.585-.243.606.279.851.829.392 3.568-2.986 4.49-9.24 3.759-10.144-.724-.895-6.963-1.668-10.772 1.007zm4.199 2.766c-7.458 3.163-15.562 4.693-22.935 4.693-10.93 0-21.512-2.998-30.068-7.978-.75-.435-1.304.332-.681.895 7.93 7.162 18.412 11.464 30.05 11.464 8.305 0 17.949-2.61 24.6-7.52 1.1-.813.159-2.03-.966-1.554z"/></svg><svg viewBox="0 0 120 57" id="ApplePay" xmlns="http://www.w3.org/2000/svg"><path fill-rule="evenodd" clip-rule="evenodd" d="M114.725 17.179l-5.371 15.886c-.67 1.958-1.23 4.028-1.734 5.65h-.111a101.9 101.9 0 00-1.735-5.538L99.845 17.18h-5.37l10.013 24.949c.224.615.335 1.007.335 1.286 0 .28-.167.672-.391 1.175-1.119 2.517-2.797 4.42-4.14 5.482-1.454 1.23-3.076 2.014-4.307 2.406l1.231 4.14c1.23-.225 3.636-1.064 6.041-3.19 3.357-2.908 5.762-7.663 9.286-16.95l7.384-19.298h-5.202zm-57.328 8.39c-1.622 0-2.965-.111-4.027-.391V10.522c.839-.224 2.461-.392 4.587-.392 5.37 0 8.894 2.405 8.894 7.384 0 5.203-3.58 8.056-9.454 8.056zm11.02-16.166C66.18 7.389 62.655 6.27 57.845 6.27c-3.916 0-6.993.336-9.342.728v37.255h4.867V29.15c1.119.28 2.461.336 3.915.336 4.755 0 8.95-1.398 11.524-4.14 1.902-1.957 2.909-4.642 2.909-8.054 0-3.357-1.23-6.098-3.3-7.888zm20.134 25.732c0 .504-.112 1.063-.28 1.567-.783 2.293-3.02 4.53-6.544 4.53-2.518 0-4.643-1.51-4.643-4.698 0-5.259 6.097-6.21 11.467-6.098v4.7zm4.755-7.496c0-5.426-2.014-11.076-10.293-11.076-3.412 0-6.657.951-8.894 2.406l1.118 3.244c1.903-1.23 4.532-2.014 7.049-2.014 5.538 0 6.153 4.028 6.153 6.265v.56c-10.46-.056-16.278 3.524-16.278 10.07 0 3.915 2.797 7.775 8.279 7.775 3.86 0 6.769-1.902 8.28-4.028h.167l.391 3.412h4.475c-.335-1.846-.447-4.14-.447-6.489V27.64zM21.117 10.37c1.122-.443 2.028-1.2 2.85-2.062 1.82-1.91 2.856-4.176 3.04-6.812.033-.484-.04-.974-.065-1.495-5.742 1.184-8.714 4.99-8.855 10.877.017.008.033.025.049.024 1.012-.073 2.027-.155 2.981-.532zm12.02 19.266c-1.84-2.497-2.464-5.281-1.879-8.317.423-2.192 1.624-3.951 3.222-5.462.451-.427.914-.842 1.37-1.261-.018-.036-.026-.065-.044-.085-.193-.227-.386-.454-.582-.677-1.568-1.781-3.44-3.057-5.81-3.516-1.832-.354-3.633-.204-5.408.323-1.194.355-2.376.753-3.57 1.103-.849.25-1.714.35-2.59.128-.614-.155-1.234-.288-1.84-.465-1.457-.423-2.907-.864-4.426-1.014-3.051-.303-5.651.617-7.765 2.856C1.775 15.41.694 18.025.254 20.923c-.5 3.286-.25 6.532.637 9.73.998 3.597 2.624 6.896 4.76 9.945.852 1.217 1.836 2.322 3.08 3.163 1.234.835 2.578 1.293 4.064.94.945-.225 1.863-.574 2.777-.91 1.202-.444 2.408-.834 3.71-.803 1.053.025 2.062.273 3.06.581.968.3 1.93.618 2.902.902 1.949.568 3.678.087 5.222-1.162.454-.368.898-.759 1.291-1.19 2.112-2.316 3.66-4.984 4.852-7.87.204-.495.372-1.004.563-1.522-.21-.08-.384-.142-.554-.21-1.462-.597-2.56-1.633-3.481-2.882z"/></svg><svg viewBox="0 0 149 40" id="PayPal" xmlns="http://www.w3.org/2000/svg"><path fill-rule="evenodd" clip-rule="evenodd" d="M147.542 0h-5.335a.963.963 0 00-.951.814l-4.742 30.18a.964.964 0 00.951 1.114h4.768c.79 0 1.463-.576 1.586-1.356l4.674-29.638A.963.963 0 00147.542 0zM81.807 10.692h-5.56c-.532 0-1.03.264-1.328.704l-7.67 11.302L64 11.838a1.606 1.606 0 00-1.537-1.146h-5.465a.964.964 0 00-.912 1.274l6.122 17.98-5.758 8.13a.963.963 0 00.786 1.52h5.554c.527 0 1.02-.257 1.32-.69l18.489-26.701a.964.964 0 00-.791-1.513zm45.22 10.772c-.534 3.163-3.043 5.286-6.243 5.286-1.605 0-2.889-.517-3.715-1.494-.817-.97-1.126-2.35-.866-3.888.498-3.134 3.047-5.325 6.199-5.325 1.571 0 2.846.521 3.687 1.508.848.993 1.18 2.384.938 3.913zm7.708-10.772h-5.53a.962.962 0 00-.951.813l-.244 1.547-.387-.56c-1.198-1.74-3.867-2.321-6.533-2.321-6.111 0-11.332 4.634-12.347 11.133-.529 3.242.221 6.34 2.058 8.503 1.689 1.987 4.097 2.814 6.967 2.814 4.926 0 7.658-3.167 7.658-3.167l-.247 1.539a.963.963 0 00.951 1.115h4.982c.789 0 1.461-.576 1.584-1.356l2.991-18.947a.963.963 0 00-.952-1.113zM44.638 21.464c-.535 3.163-3.044 5.286-6.244 5.286-1.604 0-2.888-.517-3.714-1.494-.818-.97-1.127-2.35-.867-3.888.498-3.134 3.048-5.325 6.199-5.325 1.57 0 2.846.521 3.688 1.508.847.993 1.18 2.384.938 3.913zm7.708-10.772h-5.531a.963.963 0 00-.952.813l-.242 1.547-.387-.56c-1.198-1.74-3.868-2.321-6.534-2.321-6.11 0-11.33 4.634-12.347 11.133-.529 3.242.222 6.34 2.06 8.503 1.687 1.987 4.096 2.814 6.966 2.814 4.925 0 7.658-3.167 7.658-3.167l-.247 1.539a.963.963 0 00.951 1.115h4.98c.79 0 1.463-.576 1.586-1.356l2.99-18.947a.963.963 0 00-.95-1.113zm-33.193.132c-.631 4.15-3.798 4.15-6.86 4.15h-1.744l1.223-7.747a.964.964 0 01.95-.813h.8c2.085 0 4.054 0 5.07 1.189.607.71.79 1.765.561 3.221zm7.086-7.871C24.596 1.02 21.684 0 17.82 0H6.268c-.79 0-1.462.575-1.585 1.355L.012 30.993a.964.964 0 00.952 1.115h5.515c.79 0 1.462-.576 1.585-1.357l1.26-7.995A1.605 1.605 0 0110.91 21.4h3.655c7.609 0 12-3.684 13.148-10.987.517-3.194.02-5.704-1.474-7.46zm75.303 7.871c-.631 4.15-3.797 4.15-6.86 4.15h-1.743l1.222-7.747a.963.963 0 01.951-.813h.8c2.084 0 4.053 0 5.068 1.189.608.71.792 1.765.562 3.221zm7.087-7.871C106.986 1.02 104.074 0 100.209 0H88.658c-.79 0-1.462.575-1.585 1.355L82.4 30.993a.964.964 0 00.951 1.115h5.927c.553 0 1.024-.404 1.11-.95l1.325-8.402a1.605 1.605 0 011.585-1.356h3.656c7.608 0 11.999-3.684 13.147-10.987.517-3.194.021-5.704-1.473-7.46z"/></svg><svg viewBox="0 0 136 48" id="Payoneer" xmlns="http://www.w3.org/2000/svg"><path fill-rule="evenodd" clip-rule="evenodd" d="M36.845 5.045c.53 3.009 1.045 6.02 1.614 9.021.446 2.348.934 4.69 1.464 7.02.172.754.477 1.497.837 2.184.274.526.663.486 1.03.005.151-.199.319-.404.403-.634a20.525 20.525 0 001.24-6.688c-.062-.74-.102-1.482-.188-2.218-.45-3.825-2.094-7.086-4.707-9.87-.303-.322-.742-.563-1.164-.715-.436-.157-.72.089-.68.585.037.438.075.878.15 1.31zm92.619 18.324l.269-3.369c-1.359 0-2.607-.017-3.852.023-.145.004-.388.307-.402.487-.349 4.36-1.235 8.632-2.083 12.91-.219 1.107-.406 2.22-.628 3.44 1.62 0 3.142.012 4.663-.022.115-.003.285-.317.323-.508.475-2.34.846-4.704 1.41-7.022.81-3.328 2.172-4.485 5.413-4.912.143-.018.359-.167.385-.288.305-1.443.581-2.892.887-4.455-3.123-.327-4.868 1.482-6.385 3.716zm-12.395 2.678a7.254 7.254 0 01-1.913.553c-.975.133-1.968.145-3.017.212.219-2.31 2.636-4.095 4.588-3.555.628.174 1.099.506 1.194 1.194.101.728-.202 1.31-.852 1.596zm1.942-6.067c-3.584-.99-6.705-.03-9.231 2.657-2.349 2.5-3.215 5.561-2.806 8.939.32 2.648 1.713 4.574 4.355 5.299 2.938.806 5.827.41 8.62-.737.19-.079.412-.4.402-.598-.053-1.007-.178-2.01-.284-3.078-.343.13-.599.23-.857.324-1.545.568-3.133.813-4.775.612-1.761-.215-2.923-1.452-2.767-3.077.492 0 .952.009 1.412 0 2.23-.046 4.447-.189 6.513-1.15 2.055-.957 3.044-2.598 2.912-4.773-.136-2.227-1.3-3.812-3.494-4.418zm-18.427 6.125c-.998.52-3.589.832-4.863.57.262-2.19 2.571-3.912 4.536-3.434.664.162 1.138.518 1.249 1.226.108.69-.239 1.281-.922 1.638zm2.094-6.11c-3.125-.931-5.996-.276-8.451 1.816-2.984 2.544-4.102 5.911-3.673 9.75.303 2.71 1.773 4.655 4.478 5.354 2.895.748 5.745.358 8.493-.771.191-.079.414-.397.405-.593-.051-1.01-.172-2.016-.268-3.015-.12 0-.169-.012-.21.002-.174.06-.347.126-.52.192-1.582.607-3.211.875-4.903.67-1.746-.212-2.903-1.429-2.79-3.143 1.085 0 2.15.051 3.21-.012 1.693-.1 3.36-.385 4.898-1.156 1.964-.984 2.893-2.616 2.74-4.744-.156-2.163-1.321-3.727-3.409-4.35zm-17.386-.287c-2.156-.354-4.024.276-5.65 1.695-.444.388-.864.804-1.348 1.257l.208-2.63h-4.178L71.24 36.871c1.611 0 3.067.018 4.52-.025.163-.005.415-.34.457-.556.358-1.82.684-3.645 1.006-5.472.293-1.671.596-3.34 1.449-4.84.583-1.026 1.287-1.944 2.474-2.323 1.227-.392 2.148.197 2.288 1.461.04.367.068.749.01 1.109a459.663 459.663 0 01-1.077 6.373c-.243 1.387-.517 2.768-.775 4.14.133.06.195.113.257.114 1.413.01 2.827.033 4.24-.004.16-.003.412-.327.454-.536.482-2.385.935-4.776 1.388-7.166.376-1.984.8-3.964.575-6.005-.202-1.829-1.432-3.142-3.215-3.434zM63.456 32.273c-.548.696-1.26 1.171-2.166 1.255-1.618.148-2.851-.97-2.987-2.697-.02-.254-.003-.51-.003-.766.054-1.896.514-3.666 1.654-5.215.51-.692 1.151-1.223 2-1.418 1.747-.402 3.175.614 3.335 2.508.196 2.32-.372 4.475-1.833 6.333zm4.38-11.263c-1.73-1.286-3.7-1.554-5.807-1.319-7.049.787-9.926 8.256-8.426 13.043.914 2.916 3.398 4.531 7.751 4.525 3.003-.089 5.969-1.788 7.832-5.283.995-1.869 1.35-3.893 1.22-6-.126-2.03-.923-3.742-2.57-4.966zm-39.69 10.436c-.298.46-.687.881-1.103 1.238-.689.589-1.5.847-2.387.488-.89-.36-1.207-1.166-1.263-2.015-.182-2.748.773-5.07 2.877-6.846 1.12-.946 2.453-1.253 4.046-.808-.572 2.724-.613 5.538-2.17 7.944zm7.576-10.327c.093-.487.018-.802-.55-.881-1.395-.196-2.78-.528-4.182-.607-2.738-.154-5.382.33-7.688 1.908-3.673 2.513-5.188 6.127-5.013 10.495.082 2.08.895 3.842 2.866 4.752 1.998.923 3.97.614 5.694-.717.83-.641 1.483-1.511 2.31-2.375-.053.864-.087 1.687-.162 2.506-.048.513.123.708.652.69a47.12 47.12 0 013.061.002c.551.018.68-.189.715-.723.112-1.76.196-3.533.48-5.27.535-3.27 1.198-6.522 1.817-9.78zm-22.01.882c-.763 1.629-2.14 2.396-3.846 2.584-.878.096-1.775.016-2.783.016.458-2.432.857-4.595 1.283-6.752.031-.16.234-.384.38-.404 1.195-.159 2.4-.25 3.566.166 1.645.587 2.268 2.541 1.4 4.39zm5.198-3.359c-.32-2.224-2.183-4.11-4.872-4.778-3.076-.764-6.164-.448-9.244.02-.405.062-.521.336-.595.73C3.022 20.86 1.823 27.103.633 33.347c-.215 1.131-.41 2.267-.633 3.51 1.577 0 3.052.012 4.526-.023.116-.003.289-.319.327-.51a476.21 476.21 0 001.384-7.243c.085-.467.232-.599.726-.553 2.093.193 4.154.038 6.172-.629 3.84-1.268 6.414-4.821 5.775-9.258zm47.087-7.208c2.14-1.152 4.315-2.267 6.559-3.191A51.23 51.23 0 0184.59 4.946c.441-.066 1.038-.415 1.179-.781.122-.318-.194-.95-.5-1.263C84.002 1.603 82.533.616 80.688.317c-.452-.074-.893-.21-1.339-.317h-1.53c-.42.09-.837.19-1.258.27-2.517.476-4.895 1.341-7.177 2.501-4.946 2.515-9.379 5.763-13.361 9.607a169.455 169.455 0 00-7.698 7.925c-4.358 4.791-8.084 10.051-11.06 15.821-1.535 2.975-2.905 6.03-3.535 9.345-.116.61.079 1.316.275 1.93.081.253.53.435.848.53.083.026.339-.375.448-.612.73-1.578 1.302-3.25 2.19-4.73 1.776-2.96 3.634-5.88 5.62-8.702 3.19-4.533 6.845-8.685 10.752-12.613 3.695-3.714 7.476-7.333 12.134-9.838z"/></svg><svg viewBox="0 0 113 39" id="Skrill" xmlns="http://www.w3.org/2000/svg"><path fill-rule="evenodd" clip-rule="evenodd" d="M81.168 9.37c2.562 0 4.638-2.097 4.638-4.684S83.73 0 81.168 0c-2.559 0-4.634 2.1-4.634 4.686 0 2.587 2.075 4.684 4.634 4.684zm-35.522 2.529c-.21.531-1.716 4.83-5.359 9.287V2.132L30.581 4.07v34.536h9.706V27.93c2.812 4.261 4.2 10.676 4.2 10.676h11.627c-1.15-4.83-6.182-13.74-6.182-13.74 4.516-5.783 6.499-11.947 6.815-12.969H45.646zm25.519-.36c-8.694.281-13.108 4.223-13.108 12.058v15.01h9.485v-12.24c0-4.692.608-6.703 6.118-6.895v-7.796c-.927-.199-2.495-.137-2.495-.137zM14.3 15.7c-1.189-.079-3.942-.258-3.942-2.762 0-3.021 3.964-3.021 5.45-3.021 2.614 0 5.999.78 8.416 1.51 0 0 1.348.48 2.495.973l.107.03V4.154l-.146-.044c-2.853-1.008-6.17-1.98-12.32-1.98C3.757 2.132 0 8.375 0 13.722c0 3.083 1.307 10.338 13.452 11.175 1.029.064 3.76.222 3.76 2.81 0 2.137-2.236 3.396-5.998 3.396-4.123 0-8.123-1.062-10.551-2.07v8.523C4.299 38.52 8.399 39 13.203 39c10.369 0 15.012-5.906 15.012-11.76 0-6.636-5.196-10.948-13.914-11.538zm62.165 22.906h9.409V11.929h-9.41v26.678zM103.59 3.833v34.774H113V2.132l-9.41 1.7zm-13.73 0l9.4-1.701v36.475h-9.4V3.833z"/></svg><svg viewBox="0 0 119 49" id="Stripe" xmlns="http://www.w3.org/2000/svg"><path fill-rule="evenodd" clip-rule="evenodd" d="M8.363 19.2c0-1.275 1.058-1.765 2.81-1.765 2.512 0 5.685.752 8.198 2.093v-7.687c-2.744-1.08-5.455-1.505-8.198-1.505C4.463 10.336 0 13.804 0 19.593c0 9.029 12.561 7.59 12.561 11.482 0 1.504-1.322 1.995-3.173 1.995-2.744 0-6.248-1.112-9.024-2.617v7.785a23.123 23.123 0 009.024 1.865c6.875 0 11.602-3.37 11.602-9.225-.033-9.747-12.627-8.014-12.627-11.677zM30.71 3.795l-8.066 1.701-.033 26.201c0 4.841 3.67 8.407 8.561 8.407 2.71 0 4.694-.49 5.785-1.08v-6.64c-1.058.425-6.28 1.93-6.28-2.911V17.86h6.28v-6.967h-6.28l.033-7.099zm16.527 9.52l-.528-2.421h-7.14v28.621h8.263V20.117c1.95-2.519 5.256-2.06 6.28-1.701v-7.524c-1.057-.392-4.924-1.112-6.875 2.421zm8.892 26.2h8.298V10.892h-8.298v28.622zm0-31.107l8.298-1.767V0l-8.298 1.734v6.673zm23.569 24.467c-1.95 0-3.107-.687-3.9-1.538l-.034-12.135c.86-.949 2.05-1.603 3.934-1.603 3.008 0 5.09 3.337 5.09 7.622 0 4.383-2.049 7.654-5.09 7.654zm1.983-22.538c-3.24 0-5.322 1.505-6.479 2.552l-.43-2.028H67.5V49l8.264-1.734.033-9.257c1.19.85 2.942 2.061 5.851 2.061 5.917 0 11.305-4.71 11.305-15.08-.033-9.485-5.487-14.654-11.272-14.654zm20.991 11.874c0-3.696 2.28-5.233 4.363-5.233 2.017 0 4.165 1.537 4.165 5.233h-8.528zM119 25.318c0-8.374-4.099-14.982-11.933-14.982-7.867 0-12.627 6.608-12.627 14.916 0 9.846 5.619 14.818 13.685 14.818 3.933 0 6.908-.883 9.156-2.126v-6.542c-2.248 1.112-4.826 1.799-8.099 1.799-3.206 0-6.049-1.112-6.412-4.972h16.164c0-.425.066-2.126.066-2.911z"/></svg><svg viewBox="0 0 197 46" id="TransferWise" xmlns="http://www.w3.org/2000/svg"><path fill-rule="evenodd" clip-rule="evenodd" d="M157.191 28.113h-.119l-3.489-9.978h-2.414l-3.974 9.978h-.12l-2.666-14.779h-2.914l3.641 19.033h2.7l4.309-10.52h.117l3.737 10.52h2.702l4.642-19.033h-2.784l-3.368 14.779zm-18.815-10.074c-1.512 0-3.153.592-3.927 1.68h-.119v-1.561h-2.618v14.21h2.702V24.6c0-3.003 1.64-4.207 3.808-4.207.737 0 1.224.082 1.88.236l.62-2.163-.012.01c-.859-.353-1.81-.437-2.334-.437zm-15.803-.177c-3.892 0-6.902 3.12-6.902 7.414 0 4.409 2.856 7.328 6.973 7.328 2.462 0 4.642-.874 5.951-2.446l-1.644-1.561c-1.184 1.083-2.453 1.673-4.004 1.676-2.607-.008-4.41-2.05-4.41-5.01 0-2.766 1.547-5.13 4.095-5.13 2.916 0 3.569 2.4 3.773 3.901h-5.035l-.951 2.162h8.723l.036-1.004c0-4.09-2.095-7.33-6.605-7.33zm-10.319.438v-.426c0-1.772.858-2.766 2.381-2.766.619 0 1.595.165 2.379.437l.859-1.962a7.897 7.897 0 00-3.32-.72c-2.737 0-5.119 1.359-5.119 4.999v.438h-1.808v2.364h1.808v11.823h2.702V20.664h2.737l.953-2.364h-3.572zm75.247 7.92h8.722l.035-1.004c0-4.09-2.094-7.33-6.604-7.33-3.89 0-6.902 3.121-6.902 7.412 0 4.411 2.856 7.33 6.972 7.33 2.466 0 4.644-.873 5.953-2.447l-1.644-1.56c-1.185 1.083-2.453 1.671-4.004 1.677-2.607-.01-4.408-2.051-4.408-5.01 0-2.768 1.545-5.132 4.093-5.132 2.915 0 3.571 2.4 3.772 3.901h-5.034l-.951 2.164zm-10.794-2.057h.132c-2.094-.284-3.333-.686-3.333-2.045 0-1.241 1.226-2.009 2.737-2.009 1.225 0 2.784.472 3.771 1.206l1.191-1.928c-1.225-1.005-3.214-1.537-5.046-1.537-3.154 0-5.499 1.892-5.499 4.376 0 2.835 1.845 3.758 4.964 4.256 1.761.284 3.286.472 3.286 1.96 0 1.243-1.229 1.929-2.856 1.929-1.632 0-3.037-.437-4.428-1.537l-1.19 2.129c1.023.92 3.152 1.653 5.533 1.653 3.284 0 5.651-1.89 5.651-4.409 0-3.038-2.462-3.724-4.913-4.044zm-11.628-7.945h2.953v-2.884h-2.953v2.884zm.12 16.15h2.701V18.144h-2.701v14.222zM41.925 13.345v2.566h5.949v16.455h2.856V15.9h5.95v-2.566H41.688l.238.012zm23.883 5.073a6.192 6.192 0 00-2.332-.402 4.651 4.651 0 00-3.773 1.678h-.119v-1.56h-2.618v14.232h2.702V24.6c0-3.003 1.476-4.207 3.654-4.207.737 0 1.224.082 1.88.236l.618-2.198-.012-.012zm35.796 5.756l.131-.012c-2.094-.284-3.332-.686-3.332-2.045 0-1.241 1.226-2.009 2.738-2.009 1.225 0 2.784.472 3.771 1.206l1.191-1.928c-1.226-1.005-3.213-1.537-5.046-1.537-3.154 0-5.498 1.892-5.498 4.376 0 2.835 1.845 3.782 4.962 4.256 1.761.284 3.285.472 3.285 1.96 0 1.243-1.226 1.929-2.858 1.929a6.934 6.934 0 01-4.426-1.525l-1.19 2.129c1.024.92 3.155 1.653 5.534 1.653 3.284 0 5.653-1.89 5.653-4.409 0-3.04-2.462-3.725-4.915-4.044zm-13.745-6.301l.12-.012c-1.809 0-3.452.686-4.262 2.082h-.119v-1.799H80.98v14.222h2.702v-7.683c0-2.803 1.428-4.493 3.571-4.493 2.141 0 3.403 1.124 3.403 3.725v8.451h2.702V23.43c0-3.605-2.143-5.556-5.499-5.556zM75.126 26.87c0 2.129-1.76 3.488-4.225 3.488-1.475 0-2.736-.685-2.736-2.363 0-1.562 1.19-2.601 3.332-2.601 1.809 0 2.975.319 3.654.802l-.025.674zm-3.795-9.102l-.012.094c-1.595 0-3.12.237-4.26.686l.45 2.163a10.87 10.87 0 013.452-.567c2.297 0 4.165 1.04 4.165 3.37v.402c-.738-.284-1.88-.639-3.57-.639-3.57 0-6.104 1.844-6.104 4.728 0 3.121 2.38 4.53 5.045 4.53 2.213 0 3.725-.876 4.522-1.928h.12v1.656h2.617V23.37c0-3.9-2.546-5.603-6.425-5.603zM5.399.01l7.168 11.93L0 23.857h21.73l2.046-4.777H11.782l7.138-7.165-4.235-7.128h19.777l-17.374 40.74h5.95L42.437.01H5.399z"/></svg><svg viewBox="0 0 111 36" id="Visa" xmlns="http://www.w3.org/2000/svg"><path fill-rule="evenodd" clip-rule="evenodd" d="M54.914.654h-9L38.5 35.264h.739c2.467 0 4.935-.029 7.401.019.688.013.923-.197 1.063-.859 2.016-9.527 4.063-19.048 6.101-28.57.37-1.722.735-3.444 1.11-5.2zM42.097.645c-.253-.012-.43-.027-.609-.027-2.755-.002-5.51.01-8.265-.012-.44-.004-.638.134-.798.542-2.935 7.458-5.886 14.91-8.836 22.362-.056.141-.142.271-.265.502-.08-.388-.138-.663-.19-.938-1.191-6.308-2.372-12.617-3.577-18.922C19.13 1.925 17.505.618 15.252.617H1.002C.014.617.014.617 0 1.656c.11.028.228.058.345.086 2.66.63 5.267 1.407 7.778 2.512 1.567.689 2.403 1.812 2.82 3.456 2.275 8.961 4.614 17.907 6.915 26.862.132.515.32.717.895.709a365.87 365.87 0 018.142-.006c.496.004.746-.124.95-.613 4.282-10.252 8.587-20.495 12.887-30.74.45-1.074.895-2.149 1.365-3.277zm37.032 21.836c-.32-2.568-1.846-4.467-3.939-5.848-1.776-1.173-3.696-2.127-5.524-3.225-.804-.484-1.609-1.008-2.288-1.646-.984-.927-.97-2.196.06-3.078a5.758 5.758 0 012.138-1.135c1.878-.523 3.8-.365 5.678.049 1.372.302 2.707.773 4.104 1.182l1.565-7.305c-1.06-.301-2.035-.621-3.03-.85C76.8.372 75.688.204 74.586 0h-4.195c-.173.042-.343.102-.518.123-3.155.382-6.116 1.29-8.61 3.337-2.866 2.353-4.251 5.381-3.85 9.11.269 2.491 1.683 4.365 3.636 5.77 1.524 1.097 3.235 1.932 4.845 2.912 1.03.627 2.118 1.204 3.023 1.985 1.377 1.19 1.232 3.091-.28 4.104a6.52 6.52 0 01-2.357.983c-3.16.59-6.208.047-9.16-1.14-.617-.25-1.222-.53-1.866-.812l-1.617 7.567c.112.07.177.124.25.154.247.1.494.204.747.287a28.443 28.443 0 0011.608 1.315c2.832-.263 5.55-.974 7.952-2.565 3.82-2.531 5.5-6.108 4.934-10.649zm13.557.458l4.609-12.698.108.021 2.647 12.677h-7.364zm17.493 8.55c-1.921-9.17-3.833-18.34-5.749-27.51-.233-1.116-.477-2.23-.72-3.362h-7.335c-2.176 0-3.44.841-4.284 2.851L80.407 31.304c-.545 1.297-1.08 2.597-1.647 3.96 3.107 0 6.127.006 9.147-.02.16-.002.392-.255.462-.44A108.72 108.72 0 0089.85 30.7c.155-.461.356-.628.864-.624 3.35.026 6.701.037 10.051-.006.672-.009.864.224.971.825.259 1.448.587 2.883.893 4.35h8.355v-.246c-.27-1.17-.56-2.335-.806-3.51z"/></svg><svg viewBox="0 0 12 18" id="arrow-down" xmlns="http://www.w3.org/2000/svg"><path fill-rule="evenodd" clip-rule="evenodd" d="M5 0v14.17l-3.59-3.58L0 12l6 6 6-6-1.41-1.41L7 14.17V0H5z"/></svg><svg viewBox="0 0 18 12" id="arrow-right" xmlns="http://www.w3.org/2000/svg"><path fill-rule="evenodd" clip-rule="evenodd" d="M0 5h14.17l-3.58-3.59L12 0l6 6-6 6-1.41-1.41L14.17 7H0V5z"/></svg><svg viewBox="0 0 49 48" id="cup" xmlns="http://www.w3.org/2000/svg"><path fill-rule="evenodd" clip-rule="evenodd" d="M.667 42.667h42.666V48H.667v-5.333zM43.333 0H.667v26.667c0 5.893 4.773 10.666 10.666 10.666h16C33.227 37.333 38 32.56 38 26.667v-8h5.333c2.96 0 5.334-2.4 5.334-5.334v-8A5.315 5.315 0 0043.333 0zM32.667 26.667c0 2.933-2.4 5.333-5.334 5.333h-16C8.4 32 6 29.6 6 26.667V5.333h26.667v21.334zm10.666-13.334H38v-8h5.333v8z"/></svg><svg viewBox="0 0 11 19" id="facebook" xmlns="http://www.w3.org/2000/svg"><path fill-rule="evenodd" clip-rule="evenodd" d="M11 1.5a.5.5 0 00-.5-.5H8a4.77 4.77 0 00-5 4.5v2.7H.5a.5.5 0 00-.5.5v2.6a.5.5 0 00.5.5H3v6.7a.5.5 0 00.5.5h3a.5.5 0 00.5-.5v-6.7h2.62a.5.5 0 00.49-.37l.72-2.6a.5.5 0 00-.48-.63H7V5.5a1 1 0 011-.9h2.5a.5.5 0 00.5-.5V1.5z"/></svg><svg viewBox="0 0 18 18" id="linkedin" xmlns="http://www.w3.org/2000/svg"><path fill-rule="evenodd" clip-rule="evenodd" d="M2.25 4.5a2.25 2.25 0 100-4.5 2.25 2.25 0 000 4.5zm9.9.9a5.83 5.83 0 00-5.85 5.82v5.88a.9.9 0 00.9.9h2.1a.9.9 0 00.9-.9v-5.88a1.94 1.94 0 012.15-1.93 2 2 0 011.75 2v5.81a.9.9 0 00.9.9h2.1a.9.9 0 00.9-.9v-5.88a5.83 5.83 0 00-5.85-5.82zM0 7.2a.9.9 0 01.9-.9h2.7a.9.9 0 01.9.9v9.9a.9.9 0 01-.9.9H.9a.9.9 0 01-.9-.9V7.2z"/></svg><svg viewBox="0 0 49 57" id="watch" xmlns="http://www.w3.org/2000/svg"><path fill-rule="evenodd" clip-rule="evenodd" d="M32.187.693h-16v5.334h16V.693zM21.52 35.36h5.333v-16H21.52v16zm21.413-17.653l3.787-3.787c-1.147-1.36-2.4-2.64-3.76-3.76l-3.787 3.787c-4.133-3.307-9.333-5.28-14.986-5.28-13.254 0-24 10.746-24 24 0 13.253 10.72 24 24 24s24-10.747 24-24c0-5.627-1.974-10.827-5.254-14.96zM24.187 51.36c-10.32 0-18.667-8.347-18.667-18.667 0-10.32 8.347-18.666 18.667-18.666 10.32 0 18.666 8.346 18.666 18.666S34.507 51.36 24.187 51.36z"/></svg></svg>